<svg xmlns="http://www.w3.org/2000/svg" shape-rendering="geometricPrecision" text-rendering="geometricPrecision" image-rendering="optimizeQuality" fill-rule="evenodd" clip-rule="evenodd" viewBox="0 0 421 511.604"><path fill="#E44B4D" d="M95.705.014h199.094L421 136.548v317.555c0 31.54-25.961 57.501-57.502 57.501H95.705c-31.55 0-57.502-25.872-57.502-57.501V57.515C38.203 25.887 64.076.014 95.705.014z"/><path fill="#CD4445" d="M341.028 133.408h-.019L421 188.771v-52.066h-54.357c-9.458-.15-17.998-1.274-25.615-3.297z"/><path fill="#FBCFD0" d="M294.8 0L421 136.533v.172h-54.357c-45.068-.717-69.33-23.397-71.843-61.383V0z"/><path fill="#CD4445" fill-rule="nonzero" d="M0 431.901V253.404l.028-1.261c.668-16.446 14.333-29.706 30.936-29.706h7.239v50.589h342.973c12.862 0 23.374 10.509 23.374 23.371v135.504c0 12.83-10.544 23.373-23.374 23.373H23.373C10.541 455.274 0 444.75 0 431.901z"/><path fill="#963232" fill-rule="nonzero" d="M143.448 240.364a8.497 8.497 0 01-8.497-8.497 8.497 8.497 0 018.497-8.497h163.176a8.496 8.496 0 018.496 8.497 8.496 8.496 0 01-8.496 8.497H143.448zm0-59.176a8.497 8.497 0 110-16.993h172.304a8.496 8.496 0 110 16.993H143.448z"/><path fill="#fff" fill-rule="nonzero" d="M11.329 276.171v154.728c0 7.792 6.38 14.178 14.179 14.178H380.175c7.799 0 14.178-6.379 14.178-14.178V297.405c0-7.798-6.388-14.178-14.178-14.178H37.892c-12.618-.096-19.586-1.638-26.563-7.056z"/><path fill="#1A1A1A" fill-rule="nonzero" d="M159.341 401.572h-28.828l-10.744-24.371h-5.635v24.371H87.929v-81.894h41.274c18.781 0 28.171 9.565 28.171 28.695 0 13.104-4.061 21.753-12.185 25.945l14.152 27.254zm-45.207-60.929v16.379h6.029c3.145 0 5.437-.327 6.878-.982 1.443-.655 2.162-2.163 2.162-4.522v-5.371c0-2.359-.719-3.866-2.162-4.521-1.441-.655-3.733-.983-6.878-.983h-6.029zm55.034 59.488l3.669-21.619c8.036 2.008 15.264 3.012 21.686 3.012 6.42 0 11.595-.261 15.525-.786v-6.551l-11.791-1.049c-10.657-.961-17.974-3.515-21.948-7.664-3.975-4.149-5.962-10.286-5.962-18.411 0-11.181 2.424-18.867 7.272-23.06 4.85-4.194 13.081-6.29 24.699-6.29 11.618 0 22.101 1.092 31.448 3.275l-3.275 20.965c-8.125-1.31-14.633-1.965-19.525-1.965-4.891 0-9.04.218-12.448.655v6.42l9.434.919c11.443 1.134 19.349 3.864 23.716 8.188 4.369 4.325 6.553 10.329 6.553 18.017 0 5.504-.743 10.154-2.229 13.954-1.483 3.8-3.253 6.683-5.306 8.649-2.054 1.965-4.956 3.472-8.713 4.521-3.756 1.047-7.054 1.681-9.893 1.899-2.839.218-6.617.327-11.333.327-11.357 0-21.884-1.134-31.579-3.406zm79.534 0l3.67-21.619c8.036 2.008 15.263 3.012 21.686 3.012 6.42 0 11.595-.261 15.525-.786v-6.551l-11.791-1.049c-10.658-.961-17.975-3.515-21.948-7.664-3.975-4.149-5.962-10.286-5.962-18.411 0-11.181 2.423-18.867 7.272-23.06 4.849-4.194 13.081-6.29 24.699-6.29 11.617 0 22.101 1.092 31.448 3.275l-3.276 20.965c-8.124-1.31-14.632-1.965-19.524-1.965-4.892 0-9.04.218-12.448.655v6.42l9.434.919c11.443 1.134 19.349 3.864 23.716 8.188 4.369 4.325 6.553 10.329 6.553 18.017 0 5.504-.743 10.154-2.229 13.954-1.483 3.8-3.254 6.683-5.307 8.649-2.053 1.965-4.956 3.472-8.713 4.521-3.755 1.047-7.054 1.681-9.893 1.899-2.838.218-6.617.327-11.333.327-11.357 0-21.883-1.134-31.579-3.406z"/></svg>